<?xml version="1.0" standalone="no"?><!DOCTYPE svg PUBLIC "-//W3C//DTD SVG 1.1//EN" "http://www.w3.org/Graphics/SVG/1.1/DTD/svg11.dtd" [<!ENTITY nbsp " ">]><svg data-noselect="" viewBox="189.45894042968996 137.99999237061 453.18874148425004 342.03309389335993" width="453.18874148425004" ref="svg_canvas" height="342.03309389335993" preserveAspectRatio="none" version="1.1" xmlns="http://www.w3.org/2000/svg" style="background: #ffffff;"><g id="shape_Pe1Jkm7wjk" ref="shape_Pe1Jkm7wjk" key="shape_Pe1Jkm7wjk" transform="translate(380.71170043945,217.99999237061) rotate(360,90.967990737246,91.016546946682) scale(1,1)" style="cursor:move;display:inline;opacity:1;" filter="">
            <g style="display:inline"><rect fill="rgba(0,0,0,0)" width="201.93598147449" height="202.03309389336" x="-10" y="-10"></rect><svg version="1.1" id="图层_1" xmlns="http://www.w3.org/2000/svg" xmlns:xlink="http://www.w3.org/1999/xlink" x="0px" y="0px" width="181.93598147449" height="182.03309389336" viewBox="9.800000190734863 8.600000381469727 187.3000030517578 187.3999786376953" style="enable-background:new 0 0 200 200;" xml:space="preserve" preserveAspectRatio="none" data-parent="shape_Pe1Jkm7wjk">
<style type="text/css">
	.st0{fill:#231815;}
</style>
<g>
	<g>
		<path class="" d="M100.3,11.9c-23.7,0-45.3,9.1-61.5,24c-0.3,0.3-0.6,0.6-0.9,0.8c-0.3,0.3-0.6,0.6-0.9,0.9l1.8,1.8
			c0.3-0.3,0.6-0.6,0.9-0.9c0.3-0.3,0.6-0.6,0.9-0.8c15.7-14.5,36.7-23.3,59.7-23.3c48.7,0,88.4,39.6,88.4,88.3
			c0,23-8.8,44-23.3,59.7c-0.3,0.3-0.6,0.6-0.8,0.9c-0.3,0.3-0.6,0.6-0.9,0.9l1.8,1.8c0.3-0.3,0.6-0.6,0.9-0.9
			c0.3-0.3,0.6-0.6,0.8-0.9c14.9-16.2,24-37.8,24-61.5C191.1,52.6,150.4,11.9,100.3,11.9z" fill="#004AAE"></path>
	</g>
	<g>
		<path class="" d="M46,43.1c-0.3,0.3-0.6,0.6-0.9,0.8c-0.3,0.3-0.6,0.6-0.9,0.9l-0.9-0.9l-0.8-0.8l-3.7-3.7L37,37.6L9.8,10.4
			l0.9-0.9l0.9-0.9l27.2,27.2l1.8,1.7l3.7,3.7l0.9,0.8L46,43.1z" fill="#004AAE"></path>
		<path class="" d="M197.1,194.2l-0.9,0.9l-0.9,0.9l-0.9-0.9L165.4,166l-1.8-1.8l-7.2-7.2l-0.8-0.8l-0.9-0.9
			c0.3-0.3,0.6-0.6,0.9-0.9c0.3-0.3,0.6-0.6,0.8-0.9l0.9,0.9L197.1,194.2z" fill="#004AAE"></path>
	</g>
	<g>
		<path class="" d="M98.6,20.3c-20.9,0-39.9,8-54.3,21.1c-0.3,0.3-0.6,0.6-0.9,0.8c-0.3,0.3-0.6,0.6-0.9,0.9
			C27.3,57.7,17.9,78.3,17.9,101c0,44.5,36.2,80.6,80.6,80.6c22.7,0,43.2-9.4,57.9-24.6c0.3-0.3,0.6-0.6,0.9-0.9
			c0.3-0.3,0.6-0.6,0.8-0.9c13.1-14.3,21.1-33.4,21.1-54.3C179.2,56.5,143,20.3,98.6,20.3z M155.6,154.4c-0.3,0.3-0.6,0.6-0.9,0.9
			c-14.2,14.7-34.1,23.8-56.2,23.8c-43.1,0-78.2-35.1-78.2-78.2c0-22,9.1-41.9,23.8-56.2c0.3-0.3,0.6-0.6,0.9-0.9
			c0.3-0.3,0.6-0.6,0.9-0.8c13.9-12.6,32.3-20.3,52.5-20.3c43.1,0,78.2,35.1,78.2,78.2c0,20.2-7.7,38.6-20.3,52.5
			C156.1,153.8,155.9,154.1,155.6,154.4z" fill="#004AAE"></path>
	</g>
</g>
</svg></g>
        </g><g id="shape_y3cVF7oBOh" ref="shape_y3cVF7oBOh" key="shape_y3cVF7oBOh" transform="translate(269.45894042968996,260.48523330688) rotate(0,172.89,34.46) scale(1,1)" style="cursor:move;display:inline;opacity:1;" filter="">
            <g style="display:inline"><svg xmlns="http://www.w3.org/2000/svg" version="1.1" xmlns:xlink="http://www.w3.org/1999/xlink" width="268" height="67" viewBox="0 0 268 67" preserveAspectRatio="none" data-parent="shape_y3cVF7oBOh"><rect fill="rgba(0,0,0,0)" width="268" height="67"></rect><g data-width="268" transform="translate(0, 0)"><path d="M12.43 5.17L4.65 5.17L3.79 0.52L7.79 0.52Q9.09 0.52 9.09-0.85L9.09-0.85L9.09-15.57Q5.63-14.46 3.40-13.94L3.40-13.94L1.83-21.59Q5.30-22.12 9.09-22.83L9.09-22.83L9.09-37.69L2.81-37.69L2.81-42.33L9.09-42.33L9.09-53.46L17.14-53.46L17.14-42.33L22.31-42.33L22.31-37.69L17.14-37.69L17.14-24.60Q20.35-25.32 22.38-25.91L22.38-25.91L23.36-22.38L32.52-22.38Q34.02-25.39 35.33-28.40L35.33-28.40L23.23-28.40L23.23-33.11L32.39-33.11Q30.42-38.08 28.07-42.20L28.07-42.20L31.08-43.31L24.21-43.31L24.21-47.96L40.24-47.96Q38.93-50.18 37.75-51.75L37.75-51.75L42.20-54.18Q46.59-52.21 49.60-49.14L49.60-49.14L47.24-47.96L63.14-47.96L63.14-43.31L52.80-43.31L60.00-40.30Q58.36-37.03 53.85-33.11L53.85-33.11L64.19-33.11L64.19-28.40L37.49-28.40L43.31-26.30Q42.79-24.73 41.48-22.38L41.48-22.38L64.19-22.38L64.19-17.67L59.41-17.67Q58.63-12.30 51.75-6.35L51.75-6.35Q60.72-3.01 65.17-0.33L65.17-0.33L59.87 5.82Q53.46 1.90 45.34-1.90L45.34-1.90Q36.44 3.14 23.36 5.82L23.36 5.82L21.13 2.22Q29.84-0.26 38.08-5.10L38.08-5.10Q30.75-8.18 25.39-9.95L25.39-9.95Q27.42-12.82 30.10-17.67L30.10-17.67L23.23-17.67L23.23-21.53Q20.35-19.96 17.14-18.58L17.14-18.58L17.14 0.52Q17.14 2.42 15.77 3.79L15.77 3.79Q14.39 5.17 12.43 5.17L12.43 5.17ZM51.23-17.67L38.60-17.67Q36.51-14.66 33.83-11.97L33.83-11.97Q39.06-10.67 43.97-9.09L43.97-9.09Q49.14-13.22 51.23-17.67L51.23-17.67ZM34.81-33.11L46.59-33.11Q49.53-38.01 52.02-43.31L52.02-43.31L32.91-43.31Q38.15-39.52 39.85-35.40L39.85-35.40L34.81-33.11Z" transform="translate(0 58) " fill="rgb(0, 74, 174)" stroke="rgb(0, 74, 174)" stroke-linecap="square" stroke-linejoin="square" stroke-width="0.112" data-glyph-w="67" data-glyph-h="65.4296875" data-glyph-ascender="57.578125" data-glyph-descender="-7.8515625"></path><path d="M60.65-49.79L6.35-49.79L6.35 1.37L60.65 1.37L60.65-49.79ZM14.33-3.27L14.33-45.15L52.67-45.15L52.67-3.27L14.33-3.27Z" transform="translate(67 58) " fill="rgb(0, 74, 174)" stroke="rgb(0, 74, 174)" stroke-linecap="square" stroke-linejoin="square" stroke-width="0.112" data-glyph-w="67" data-glyph-h="65.4296875" data-glyph-ascender="57.578125" data-glyph-descender="-7.8515625"></path><path d="M6.35-53.46Q14.13-50.18 17.93-45.60L17.93-45.60L12.63-40.37Q7.92-45.87 2.88-50.64L2.88-50.64L6.35-53.46ZM38.34 5.82L45.74 1.96Q42.59-4.65 35.00-11.65L35.00-11.65L31.67-9.55Q35.33-1.70 38.34 5.82L38.34 5.82ZM33.57-41.48L33.57-23.69Q33.57-9.55 25.65-0.46L25.65-0.46Q21.72 4.12 17.73 5.82L17.73 5.82L15.83 2.49Q18.71 0.33 21.66-4.12L21.66-4.12Q27.48-12.96 27.48-24.14L27.48-24.14L27.48-41.48L33.57-41.48ZM58.04 5.17L48.09 5.17L47.24 0.52L53.39 0.52Q54.70 0.52 54.70-0.85L54.70-0.85L54.70-53.46L62.68-53.46L62.68 0.52Q62.68 2.42 61.31 3.79L61.31 3.79Q59.93 5.17 58.04 5.17L58.04 5.17ZM45.34-49.27L45.34-4.97L52.28-4.97L52.28-49.27L45.34-49.27ZM25.26-13.22L18.19-13.22L18.19-50.84L42.86-50.84L42.86-13.22L35.79-13.22L35.79-46.13L25.26-46.13L25.26-13.22ZM2.22 2.55L10.47 5.17Q13.74-5.04 15.25-19.30L15.25-19.30L10.60-20.54Q6.94-9.03 2.22 2.55L2.22 2.55ZM5.37-38.54Q13.15-35.27 16.88-30.69L16.88-30.69L11.65-25.45Q6.94-30.95 1.83-35.72L1.83-35.72L5.37-38.54Z" transform="translate(134 58) " fill="rgb(0, 74, 174)" stroke="rgb(0, 74, 174)" stroke-linecap="square" stroke-linejoin="square" stroke-width="0.112" data-glyph-w="67" data-glyph-h="65.4296875" data-glyph-ascender="57.578125" data-glyph-descender="-7.8515625"></path><path d="M8.24-3.60Q6.67-2.75 5.10-1.90L5.10-1.90L9.55 4.51Q15.57 1.05 20.68-4.19L20.68-4.19L22.12 2.49Q35.07 0.72 46.98-4.45L46.98-4.45L45.67-8.64Q41.29-7.85 36.77-7.13L36.77-7.13L36.77-24.14L43.97-24.14L43.97-28.85L21.26-28.85L21.26-24.14L28.79-24.14L28.79-6.08Q25.26-5.63 21.66-5.23L21.66-5.23Q23.42-7.13 25.06-9.23L25.06-9.23L22.25-12.63Q19.43-10.53 16.29-8.44L16.29-8.44L16.29-34.81L2.88-34.81L2.88-30.10L8.24-30.10L8.24-3.60ZM20.15-42.53L20.15-42.53L13.67-37.69Q9.55-44.10 4.45-50.77L4.45-50.77L7.52-53.46Q15.38-48.68 20.15-42.53ZM44.17-37.03L44.17-37.03L20.35-37.03L20.35-41.68L43.71-41.68Q43.25-47.31 43.12-53.46L43.12-53.46L51.10-53.46Q51.17-47.31 51.62-41.68L51.62-41.68L57.38-41.68Q54.90-46.32 51.82-51.17L51.82-51.17L55.62-53.46Q60.98-49.53 63.66-45.54L63.66-45.54L58.56-41.68L64.19-41.68L64.19-37.03L52.08-37.03Q54.90-12.63 65.17 2.49L65.17 2.49L61.83 5.82Q57.38 3.27 52.87-5.43L52.87-5.43Q46.32-17.86 44.17-37.03Z" transform="translate(201 58) " fill="rgb(0, 74, 174)" stroke="rgb(0, 74, 174)" stroke-linecap="square" stroke-linejoin="square" stroke-width="0.112" data-glyph-w="67" data-glyph-h="65.4296875" data-glyph-ascender="57.578125" data-glyph-descender="-7.8515625"></path></g></svg></g>
        </g><g id="shape_z43PkstAzd" ref="shape_z43PkstAzd" key="shape_z43PkstAzd" transform="translate(399.05773925781,329.40521240234) rotate(0,83.3564453125,16.46875) scale(1,1)" style="cursor:move;display:inline;opacity:1;" filter="">
            <g style="display:inline"><svg xmlns="http://www.w3.org/2000/svg" version="1.1" xmlns:xlink="http://www.w3.org/1999/xlink" width="116" height="41.14375" viewBox="0 0 116 41.14375" preserveAspectRatio="none" data-parent="shape_z43PkstAzd"><rect fill="rgba(0,0,0,0)" width="116" height="41.14375"></rect><g data-width="115.5" transform="translate(0.5, 0)"><path d="M14.47 0.45L14.15 0.52L13.44 0.19Q12.73-2.19 12.57-4.79Q12.41-7.38 12.02-9.89L12.02-9.89L10.80-9.89L9.44-9.76L6.19-9.76Q5.29-7.38 4.54-4.91Q3.80-2.45 3.03-0.06L3.03-0.06Q2.71 0.19 2.19 0.13L2.19 0.13Q1.74-0.06 1.55-0.52L1.55-0.52L1.55-1.10Q3.29-7.38 5.35-13.54Q7.41-19.69 10.34-25.52L10.34-25.52Q10.73-25.85 11.31-25.78L11.31-25.78Q11.76-25.59 11.96-25.14L11.96-25.14Q12.73-18.92 13.54-12.70Q14.34-6.48 15.18-0.32L15.18-0.32Q14.99 0.19 14.47 0.45L14.47 0.45ZM9.44-11.63L11.76-11.76L11.76-12.02Q11.44-14.28 11.15-16.56Q10.86-18.85 10.60-21.21L10.60-21.21L10.47-21.21Q9.38-18.85 8.40-16.50Q7.41-14.15 6.77-11.63L6.77-11.63L9.44-11.63Z" transform="translate(0 28) " fill="rgb(0, 74, 174)" stroke="rgb(0, 74, 174)" stroke-linecap="square" stroke-linejoin="square" stroke-width="0.055" data-glyph-w="16.5" data-glyph-h="33" data-glyph-ascender="28.359375" data-glyph-descender="-4.640625"></path><path d="M3.29 4.19L2.64 4.45L1.93 4.06L1.68 3.35Q2.38-0.84 2.87-5.59Q3.35-10.34 4.38-14.47L4.38-14.47Q4.77-14.79 5.35-14.73L5.35-14.73L5.99-14.34Q7.03-15.05 8.20-15.37Q9.38-15.69 10.73-15.57L10.73-15.57Q11.96-15.37 12.86-14.47L12.86-14.47Q14.08-13.12 14.82-11.60Q15.57-10.09 15.37-8.15L15.37-8.15Q15.05-5.77 14.31-4.58Q13.57-3.38 12.60-2.26L12.60-2.26Q11.70-1.61 10.57-1.42Q9.44-1.22 8.19-1.29L8.19-1.29Q7.22-1.42 6.28-1.64Q5.35-1.87 4.38-2.13L4.38-2.13Q4.19-0.52 4.00 1.10Q3.80 2.71 3.29 4.19L3.29 4.19ZM9.96-3.19L10.73-3.45L11.50-3.83Q12.67-5.32 13.15-6.74Q13.63-8.15 13.50-9.64L13.50-9.64Q13.31-10.67 12.73-11.50Q12.15-12.34 11.50-13.18L11.50-13.18Q10.60-13.89 9.25-13.70L9.25-13.70Q8.41-13.50 7.62-13.12Q6.83-12.73 6.12-12.15L6.12-12.15L5.74-11.50L5.48-11.31Q5.22-9.83 5.03-7.83Q4.83-5.83 4.71-4.29L4.71-4.29Q5.87-3.64 7.17-3.38Q8.48-3.13 9.96-3.19L9.96-3.19Z" transform="translate(16.5 28) " fill="rgb(0, 74, 174)" stroke="rgb(0, 74, 174)" stroke-linecap="square" stroke-linejoin="square" stroke-width="0.055" data-glyph-w="16.5" data-glyph-h="33" data-glyph-ascender="28.359375" data-glyph-descender="-4.640625"></path><path d="M9.18 0.19L8.86 0.26Q8.35 0.19 7.99-0.26L7.99-0.26Q7.67-1.29 7.51-2.38Q7.35-3.48 7.41-4.67L7.41-4.67Q7.61-7.06 7.94-9.38Q8.28-11.70 9.18-13.76L9.18-13.76Q9.51-14.02 10.02-13.95L10.02-13.95Q10.47-13.76 10.67-13.31L10.67-13.31L10.67-12.73Q9.89-10.41 9.60-7.90Q9.31-5.38 9.31-2.84L9.31-2.84Q9.57-1.61 9.83-0.45L9.83-0.45Q9.64 0 9.18 0.19L9.18 0.19ZM10.99-17.63L10.28-17.56L9.57-17.89Q9.18-18.40 9.18-19.05L9.18-19.05L9.51-19.75Q9.96-20.37 10.73-20.24L10.73-20.24Q11.38-19.82 11.76-19.11L11.76-19.11L11.76-18.40Q11.50-17.89 10.99-17.63L10.99-17.63Z" transform="translate(33 28) " fill="rgb(0, 74, 174)" stroke="rgb(0, 74, 174)" stroke-linecap="square" stroke-linejoin="square" stroke-width="0.055" data-glyph-w="16.5" data-glyph-h="33" data-glyph-ascender="28.359375" data-glyph-descender="-4.640625"></path><path d="M6.57 0.58L6.57 0.58Q6.12 0.39 5.93-0.06L5.93-0.06L5.87-0.71Q6.06-1.48 6.09-2.35Q6.12-3.22 6.25-4.09L6.25-4.09L6.25-8.48L6.64-14.47L6.64-18.66L6.96-23.85L3.87-23.85L1.55-23.65L0.84-24.04Q0.58-24.36 0.64-24.88L0.64-24.88L0.90-25.33Q2.32-25.72 3.87-25.72L3.87-25.72L11.25-25.72Q12.41-25.59 13.60-25.62Q14.79-25.65 15.82-25.20L15.82-25.20Q16.08-24.88 16.02-24.36L16.02-24.36Q15.82-23.91 15.37-23.72L15.37-23.72L14.53-23.65L8.99-23.85Q8.73-22.95 8.67-21.93Q8.60-20.92 8.54-18.66L8.54-18.66L8.54-14.47L8.12-8.48L8.12-4.09Q7.93-2.96 7.93-1.77Q7.93-0.58 7.41 0.39L7.41 0.39Q7.09 0.64 6.57 0.58Z" transform="translate(49.5 28) " fill="rgb(0, 74, 174)" stroke="rgb(0, 74, 174)" stroke-linecap="square" stroke-linejoin="square" stroke-width="0.055" data-glyph-w="16.5" data-glyph-h="33" data-glyph-ascender="28.359375" data-glyph-descender="-4.640625"></path><path d="M8.54 0.19L8.54 0.19Q7.09 0.13 5.80-0.32Q4.51-0.77 3.48-1.87L3.48-1.87Q2.38-2.96 1.97-4.33Q1.55-5.70 1.68-7.25L1.68-7.25Q1.93-8.86 2.42-10.38Q2.90-11.89 4.06-13.12L4.06-13.12Q5.29-14.21 6.82-14.70Q8.35-15.18 10.09-15.11L10.09-15.11Q11.05-15.05 11.89-14.76Q12.73-14.47 13.37-13.70L13.37-13.70Q13.83-12.99 13.95-12.18Q14.08-11.38 14.02-10.47L14.02-10.47Q13.50-9.25 12.41-8.22L12.41-8.22Q10.60-6.74 8.40-6.12Q6.19-5.51 3.87-5.38L3.87-5.38L3.67-5.45L3.67-5.19Q4.00-4.03 4.90-3.09L4.90-3.09Q5.80-2.26 6.93-1.97Q8.06-1.68 9.31-1.68L9.31-1.68Q10.60-1.68 11.73-2.06Q12.86-2.45 14.02-2.77L14.02-2.77Q14.47-2.58 14.66-2.13L14.66-2.13L14.66-1.55Q14.41-0.97 13.83-0.77L13.83-0.77Q12.60-0.26 11.28-0.03Q9.96 0.19 8.54 0.19ZM10.41-9.06L10.41-9.06Q11.57-9.70 12.15-10.86L12.15-10.86L12.15-11.89L11.70-12.73Q10.41-13.37 8.80-13.25L8.80-13.25Q7.80-13.12 6.96-12.76Q6.12-12.41 5.35-11.76L5.35-11.76Q4.51-10.80 4.16-9.67Q3.80-8.54 3.61-7.32L3.61-7.32L4.38-7.32Q6.06-7.38 7.56-7.83Q9.06-8.28 10.41-9.06Z" transform="translate(66 28) " fill="rgb(0, 74, 174)" stroke="rgb(0, 74, 174)" stroke-linecap="square" stroke-linejoin="square" stroke-width="0.055" data-glyph-w="16.5" data-glyph-h="33" data-glyph-ascender="28.359375" data-glyph-descender="-4.640625"></path><path d="M7.73 0.13L7.73 0.13L7.03-0.26Q6.77-0.58 6.83-1.10L6.83-1.10Q7.03-1.55 7.48-1.74L7.48-1.74Q9.12-1.87 10.57-2.37Q12.02-2.87 13.18-4.03L13.18-4.03L13.37-4.54Q13.05-4.93 12.54-5.12L12.54-5.12Q11.18-5.45 9.64-5.32L9.64-5.32Q8.54-5.12 7.43-5.00Q6.32-4.87 5.16-4.80L5.16-4.80Q4.25-4.87 3.48-5.19Q2.71-5.51 2.06-6.22L2.06-6.22Q1.29-7.44 1.42-9.12L1.42-9.12Q1.61-10.22 2.35-11.12Q3.09-12.02 3.87-12.86L3.87-12.86Q5.48-14.15 7.40-14.79Q9.31-15.44 11.50-15.24L11.50-15.24Q13.12-15.18 14.28-13.95L14.28-13.95Q14.60-13.50 14.53-12.86L14.53-12.86Q14.34-12.41 13.89-12.21L13.89-12.21L13.37-12.21Q12.79-12.86 12.08-13.25L12.08-13.25Q10.73-13.44 9.25-13.37L9.25-13.37Q8.02-13.05 6.82-12.50Q5.61-11.96 4.64-10.99L4.64-10.99Q3.22-9.83 3.29-8.09L3.29-8.09Q3.35-7.57 3.74-7.19L3.74-7.19Q4.64-6.61 5.80-6.67L5.80-6.67Q7.35-6.86 8.88-7.06Q10.41-7.25 12.08-7.19L12.08-7.19Q13.63-6.93 14.79-5.90L14.79-5.90Q15.31-5.25 15.24-4.35L15.24-4.35Q15.11-3.06 13.95-2.13L13.95-2.13Q12.60-1.03 11.05-0.55Q9.51-0.06 7.73 0.13Z" transform="translate(82.5 28) " fill="rgb(0, 74, 174)" stroke="rgb(0, 74, 174)" stroke-linecap="square" stroke-linejoin="square" stroke-width="0.055" data-glyph-w="16.5" data-glyph-h="33" data-glyph-ascender="28.359375" data-glyph-descender="-4.640625"></path><path d="M7.41-0.19L6.90-0.19Q6.19-0.58 5.93-1.29L5.93-1.29L5.87-2.26Q6.19-4.96 6.54-7.69Q6.90-10.41 7.22-13.12L7.22-13.12L6.83-13.12L3.29-12.60L2.58-12.99Q2.32-13.31 2.38-13.83L2.38-13.83Q2.58-14.28 3.03-14.47L3.03-14.47Q4.19-14.60 5.29-14.79Q6.38-14.99 7.61-14.99L7.61-14.99Q7.80-16.53 8.04-18.01Q8.28-19.50 8.67-20.92L8.67-20.92Q9.06-21.17 9.57-21.11L9.57-21.11Q10.02-20.92 10.22-20.46L10.22-20.46L10.22-19.37Q9.96-18.34 9.80-17.24Q9.64-16.15 9.51-15.05L9.51-15.05Q10.60-15.05 11.73-15.02Q12.86-14.99 13.83-14.60L13.83-14.60Q14.08-14.28 14.02-13.76L14.02-13.76Q13.83-13.31 13.37-13.12L13.37-13.12L12.08-13.05L9.18-13.18Q8.80-10.41 8.41-7.56Q8.02-4.71 7.80-1.87L7.80-1.87Q8.15-1.42 8.09-0.84L8.09-0.84Q7.90-0.39 7.41-0.19L7.41-0.19Z" transform="translate(99 28) " fill="rgb(0, 74, 174)" stroke="rgb(0, 74, 174)" stroke-linecap="square" stroke-linejoin="square" stroke-width="0.055" data-glyph-w="16.5" data-glyph-h="33" data-glyph-ascender="28.359375" data-glyph-descender="-4.640625"></path></g></svg></g>
        </g></svg>